<svg width="22" height="22" viewBox="0 0 22 22" fill="none" xmlns="http://www.w3.org/2000/svg">
<circle cx="11" cy="11" r="11" fill="#F24E1E"/>
<g clip-path="url(#clip0_138_102)">
<path d="M5.75 13.4615C5.75 12.7361 5.99136 12.016 6.39368 11.2428C6.70311 10.6482 7.0799 10.0705 7.48301 9.45238C7.61365 9.25207 7.74706 9.04752 7.88184 8.83677C8.77843 7.43483 9.71047 5.80218 9.59023 3.87514C11.9463 4.47319 15.75 7.27232 15.75 13.5C15.75 13.9662 15.6906 14.3956 15.5875 14.792C15.078 16.7506 13.1725 18.2164 11.1298 18.2472C10.9433 18.25 10.7492 18.25 10.5385 18.25C9.26848 18.25 8.05052 17.7455 7.15251 16.8475C6.2545 15.9495 5.75 14.7315 5.75 13.4615Z" stroke="white" stroke-width="1.5" stroke-linecap="round" stroke-linejoin="round"/>
<path d="M13.25 15.4108C13.25 14.5109 12.8899 13.9786 12.4325 13.4091C12.3901 13.3564 12.345 13.3016 12.2979 13.2445C11.9982 12.8808 11.6222 12.4246 11.4231 11.8361C10.9745 11.9512 10.4499 12.1872 9.98373 12.5784C9.30692 13.1464 8.75 14.043 8.75 15.4108C8.75 16.203 9.01419 16.9414 9.45413 17.4678C9.89078 17.9902 10.4511 18.25 11 18.25C11.5489 18.25 12.1092 17.9902 12.5459 17.4678C12.9858 16.9414 13.25 16.203 13.25 15.4108Z" stroke="white" stroke-width="1.5" stroke-linecap="round" stroke-linejoin="round"/>
</g>
<defs>
<clipPath id="clip0_138_102">
<rect width="12" height="16" fill="white" transform="translate(5 3)"/>
</clipPath>
</defs>
</svg>
