<svg width="24" height="24" viewBox="0 0 24 24" fill="none" xmlns="http://www.w3.org/2000/svg">
<path d="M4.84619 10.3073V19.3846C4.84619 19.5478 4.91103 19.7043 5.02644 19.8197C5.14185 19.9352 5.29838 20 5.4616 20H9.15406V14.769C9.15406 14.5242 9.25132 14.2894 9.42444 14.1163C9.59756 13.9431 9.83235 13.8459 10.0772 13.8459H13.1542C13.3991 13.8459 13.6339 13.9431 13.807 14.1163C13.9801 14.2894 14.0773 14.5242 14.0773 14.769V20H17.7698C17.933 20 18.0896 19.9352 18.205 19.8197C18.3204 19.7043 18.3852 19.5478 18.3852 19.3846V10.3073" stroke="#1155D9" stroke-linecap="round" stroke-linejoin="round"/>
<path d="M20.2315 11.9997L12.0346 4.15318C11.8423 3.9501 11.3927 3.94779 11.1969 4.15318L3 11.9997" stroke="#1155D9" stroke-linecap="round" stroke-linejoin="round"/>
</svg>
