<svg width="22" height="22" viewBox="0 0 22 22" fill="none" xmlns="http://www.w3.org/2000/svg">
<circle cx="11" cy="11" r="11" fill="#FFB627"/>
<path d="M6.75 12.0649C6.75 10.5981 7.54798 9.65389 8.50175 8.5647C8.52376 8.53956 8.54593 8.51428 8.56824 8.48884C9.2847 7.6718 10.1371 6.69978 10.2742 5.37805C11.1029 5.62363 12.141 6.22123 13.0787 7.16026C14.3147 8.39816 15.25 10.1087 15.25 12.0649C15.25 13.1717 14.8046 14.2351 14.0087 15.0208C13.2124 15.8067 12.1303 16.25 11 16.25C9.86969 16.25 8.78762 15.8067 7.99132 15.0208C7.19535 14.2351 6.75 13.1717 6.75 12.0649Z" stroke="white" stroke-width="1.5" stroke-linecap="round" stroke-linejoin="round"/>
</svg>
