<svg width="24" height="24" viewBox="0 0 24 24" fill="none" xmlns="http://www.w3.org/2000/svg">
<g id="calendar">
<g id="Group 6">
<path id="Vector" d="M5.51753 16.7692C5.56368 16.6008 5.46253 16.3665 5.36599 16.1977C5.33606 16.1473 5.30345 16.0985 5.26829 16.0515C4.44032 14.7959 3.99901 13.3248 3.99906 11.8208C3.98522 7.50346 7.56522 4 11.9921 4C15.8529 4 19.076 6.67462 19.8287 10.225C19.9416 10.7514 19.9988 11.2882 19.9991 11.8265C19.9991 16.15 16.5571 19.7085 12.1302 19.7085C11.426 19.7085 10.4764 19.5315 9.95829 19.3865C9.44022 19.2415 8.92291 19.0492 8.78945 18.9977C8.65282 18.9452 8.50773 18.9182 8.36137 18.9181C8.20177 18.9175 8.04372 18.9493 7.89676 19.0115L5.28753 19.9531C5.23051 19.9777 5.17007 19.9935 5.10829 20C5.05943 19.9999 5.01108 19.99 4.96604 19.9711C4.921 19.9521 4.88017 19.9244 4.8459 19.8896C4.81164 19.8547 4.78462 19.8134 4.76641 19.7681C4.74821 19.7228 4.73917 19.6742 4.73983 19.6254C4.74304 19.5825 4.75078 19.5401 4.76291 19.4988L5.51753 16.7692Z" stroke="#1155D9" stroke-miterlimit="10" stroke-linecap="round"/>
<path id="Vector_2" d="M8.3067 13.2308C8.98643 13.2308 9.53747 12.6797 9.53747 12C9.53747 11.3203 8.98643 10.7692 8.3067 10.7692C7.62696 10.7692 7.07593 11.3203 7.07593 12C7.07593 12.6797 7.62696 13.2308 8.3067 13.2308Z" fill="#1155D9"/>
<path id="Vector_3" d="M11.9991 13.2308C12.6788 13.2308 13.2298 12.6797 13.2298 12C13.2298 11.3203 12.6788 10.7692 11.9991 10.7692C11.3193 10.7692 10.7683 11.3203 10.7683 12C10.7683 12.6797 11.3193 13.2308 11.9991 13.2308Z" fill="#1155D9"/>
<path id="Vector_4" d="M15.6913 13.2308C16.3711 13.2308 16.9221 12.6797 16.9221 12C16.9221 11.3203 16.3711 10.7692 15.6913 10.7692C15.0116 10.7692 14.4606 11.3203 14.4606 12C14.4606 12.6797 15.0116 13.2308 15.6913 13.2308Z" fill="#1155D9"/>
</g>
</g>
</svg>
