<svg width="24" height="24" viewBox="0 0 24 24" fill="none" xmlns="http://www.w3.org/2000/svg">
<g id="notebook 1">
<g id="Group 4">
<path id="Vector" d="M17.3048 9.45814C17.0736 9.68785 16.761 9.81678 16.435 9.81678C16.1091 9.81678 15.7964 9.68785 15.5652 9.45814L14.5438 8.43668C14.3139 8.20552 14.1848 7.89273 14.1848 7.56669C14.1848 7.24065 14.3139 6.92787 14.5438 6.6967L16.8558 4.38353C16.8604 4.37913 16.8638 4.37366 16.8657 4.36762C16.8677 4.36158 16.8681 4.35515 16.867 4.34891C16.8658 4.34266 16.8632 4.3368 16.8592 4.33184C16.8552 4.32688 16.8501 4.32298 16.8443 4.32048C15.3519 3.68077 13.417 4.00678 12.1883 5.2266C11.0127 6.39338 10.9458 8.14835 11.3764 9.67996C11.4376 9.89767 11.4374 10.128 11.3759 10.3457C11.3145 10.5633 11.1941 10.7597 11.0281 10.9132L4.6233 16.7625C4.43433 16.93 4.28163 17.1345 4.17459 17.3632C4.06754 17.5919 4.00841 17.8402 4.00083 18.0926C3.99326 18.345 4.03739 18.5963 4.13052 18.8311C4.22366 19.0658 4.36382 19.279 4.54239 19.4576C4.72097 19.6362 4.93418 19.7763 5.16893 19.8695C5.40367 19.9626 5.65498 20.0067 5.90742 19.9992C6.15985 19.9916 6.40806 19.9325 6.63679 19.8254C6.86553 19.7184 7.06995 19.5657 7.23749 19.3767L13.1525 12.9565C13.3041 12.7933 13.4972 12.6744 13.7112 12.6126C13.9252 12.5508 14.152 12.5483 14.3673 12.6056C15.8874 13.0127 17.6174 12.9362 18.7776 11.7909C20.0267 10.5607 20.2962 8.38632 19.6907 7.14189C19.6879 7.13645 19.684 7.13173 19.6791 7.12813C19.6742 7.12453 19.6685 7.12214 19.6625 7.12117C19.6565 7.12019 19.6503 7.12066 19.6445 7.12252C19.6387 7.12438 19.6335 7.1276 19.6292 7.13189L17.3048 9.45814Z" stroke="#1155D9" stroke-miterlimit="10" stroke-linecap="round"/>
<path id="Vector_2" d="M5.85351 18.7616C6.19322 18.7616 6.46861 18.4862 6.46861 18.1465C6.46861 17.8068 6.19322 17.5314 5.85351 17.5314C5.51379 17.5314 5.2384 17.8068 5.2384 18.1465C5.2384 18.4862 5.51379 18.7616 5.85351 18.7616Z" fill="#1155D9"/>
</g>
</g>
</svg>
